<svg xmlns="http://www.w3.org/2000/svg" version="1.1" xmlns:xlink="http://www.w3.org/1999/xlink" xmlns:svgjs="http://svgjs.com/svgjs" width="512" height="512" x="0" y="0" viewBox="0 0 496 496" style="enable-background:new 0 0 512 512" xml:space="preserve" class=""><g><path d="M80.124 160h128v32h-128zM344.124 96h96v32h-96zM208.124 8h80v16h-80z" style="" fill="transparent" data-original="#f9ba48" class="" opacity="1"></path><path d="M248.124 440h16v16h-16z" style="" fill="black" data-original="#000000" class=""></path><path d="M448.124 194.648V136h8v-16h-8V88h-112v23.384c-20.192-3.008-35.336-17.024-45.88-31.384h5.88V32h8V16h-8V0h-96.008v16h-7.992v16h7.992v42.208c-19.552 4.336-54.792 17.28-93.648 56.136l11.312 11.312C170.388 89.048 215.7 88.008 216.156 88h10.128c3.224 9.416 10.8 28.848 24.12 48.496 18.56 27.352 41.528 44.976 67.416 52.008-25.56 7.48-60.072 14.208-101.696 18.608V200h8v-16h-8v-32h-144v32h-8v16h8v97.976c-13.232 4.392-44.48 18.32-70.656 57.584l13.312 8.872c22.944-34.408 50.288-47 61.592-50.968C94.964 344.928 189.02 496 280.124 496h136v-80h-8c-65.16 0-136.328-92.888-171.24-145.184 45.472-4.728 164.216-21.04 177.872-62.816h17.328c1.16.016 28.52.632 49.648 28.8l12.8-9.592c-15.32-20.416-33.584-28.96-46.408-32.56zm-80-90.648v8h16v-8h16v8h16v-8h16v16h-80v-16h16zm16 56c0-4.416 3.584-8 8-8s8 3.584 8 8c0 8.824-11.864 16.6-30.488 23.208 9-6.704 14.488-14.384 14.488-23.208zm-48-32.608v8.264c-67.2-5.328-92.24-76.792-95.856-88.36.368-4.064 3.688-7.296 7.856-7.296 4.416 0 8 3.584 8 8v1.296l.416 1.232c1.008 3.024 24.344 70.72 79.584 76.864zM216.116 72V16h64.008v47.968c-4.448-8.248-7.128-15.016-8.048-17.488C271.292 33.952 260.852 24 248.124 24c-13.232 0-24 10.768-24 24v24h-8.008zm30.152 23.184c17.192 25.744 45.728 53.512 89.856 56.536v23.872c-50.68-4.728-78.384-53.608-89.856-80.408zM88.124 168h16v8h16v-8h16v8h16v-8h16v8h16v-8h16v16h-112v-16zm56 32h56v64h-24v-32c0-17.648-14.352-32-32-32s-32 14.352-32 32v32h-7.736c-8.416-12.904-14.088-22.416-16.264-26.144V200h56zm53.056 176h63.336a617.737 617.737 0 0 0 16.312 16h-59.384c-6.856-4.832-13.624-10.2-20.264-16zm-17.048-16a433.074 433.074 0 0 1-15.112-16h65.872a784.523 784.523 0 0 0 14.376 16h-65.136zm-28.888-32a614.93 614.93 0 0 1-12.792-16h65.776a893.437 893.437 0 0 0 13.016 16h-66zm-24.8-32a724.646 724.646 0 0 1-11.328-16h64.864c2.408 3.36 6.44 8.92 11.808 16h-65.344zm33.68-32h-32v-32c0-8.824 7.176-16 16-16s16 7.176 16 16v32zm112 215.544c-83.208-9.344-173.36-159.488-184-177.696v-33.32c31.592 49.408 108.04 155.912 184 163.088v47.928zM245.244 408h49.336c18.024 15.464 36.944 29.296 55.904 39.336h-62.36V416h-8c-11.52 0-23.224-2.936-34.88-8zm42.88 72v-16.664h109.704c.768.088 1.528.152 2.296.224V480h-112zm112-48.384v15.72h-1.488C323.5 437.728 229.244 319.304 199.86 280h16.264v-11.48c31.584 49.4 108.032 155.92 184 163.096zM227.028 255.672c-5.48-8.648-9.232-14.952-10.904-17.816v-14.208c37.792-1.88 143.568-9.632 184-38.328V200c0 16.704-53.816 44.808-173.096 55.672zM416.124 192v-32c0-13.232-10.768-24-24-24s-24 10.768-24 24c0 4.712-5.616 10.056-16 15.496V136h80v56h-16z" style="" fill="black" data-original="#333333" class=""></path><path d="M216.124 424h16v16h-16z" style="" fill="#black" data-original="#333333" class=""></path></g></svg>