<svg xmlns="http://www.w3.org/2000/svg" version="1.1" xmlns:xlink="http://www.w3.org/1999/xlink" xmlns:svgjs="http://svgjs.com/svgjs" width="512" height="512" x="0" y="0" viewBox="0 0 300 300" style="enable-background:new 0 0 512 512" xml:space="preserve" class=""><g transform="matrix(1.2299999999999998,0,0,1.2299999999999998,-34.5,-34.5)"><path d="M258 80h-20.694c-.224 0-.439.031-.653.066A4.014 4.014 0 0 0 236 80h-39.512A138.08 138.08 0 0 0 170 76.169V56c0-11.028-8.972-20-20-20s-20 8.972-20 20v20.038A138.13 138.13 0 0 0 99.512 80H60c-.229 0-.451.031-.67.068a3.993 3.993 0 0 0-.67-.068H42a4 4 0 0 0-4 4c0 11.028 8.972 20 20 20h2.255c2.653 6.083 6.955 12.077 13.956 15.578A4.012 4.012 0 0 0 76 120h30v34a4 4 0 0 0 1.781 3.328L118 164.141V260a4 4 0 0 0 4 4h52a4 4 0 0 0 4-4v-21.907c5.691 3.201 9.599 5.178 10.206 5.483a3.999 3.999 0 0 0 5.794-3.575v-44a4 4 0 0 0-4-4h-3.342a32.31 32.31 0 0 1-8.658-1.185v-26.674l10.219-6.812a4 4 0 0 0 1.781-3.328v-34h30c.621 0 1.233-.145 1.789-.422 7.001-3.501 11.303-9.495 13.956-15.578H242c11.028 0 20-8.972 20-20A4 4 0 0 0 258 80zM150 44c6.617 0 12 5.383 12 12v20h-24V56c0-6.617 5.383-12 12-12zM46.686 88h9.551c.209 2.115.602 4.9 1.349 7.983-5.035-.172-9.294-3.451-10.9-7.983zM114 151.859V116a4 4 0 0 0-4-4H76.994c-9.309-5.248-11.95-17.6-12.699-24h35.428c3.019 3.343 9.016 9.077 18.277 14.108v52.418zM170 256h-44v-57.248c10.928 13.4 29.864 26.217 44 34.694zm16-22.64c-5.77-3.144-15.139-8.484-24.811-14.989-19.807-13.32-31.953-25.404-35.189-34.997v-77.497a80.684 80.684 0 0 0 7.981 2.735c-.021.718-.057 1.931-.109 3.457-.721 21.093 3.97 41.894 13.565 60.151 1.55 2.95 3.133 5.745 4.704 8.309 7.356 12.003 19.977 19.244 33.858 19.467v33.364zm-27.038-57.011a137.484 137.484 0 0 1-4.442-7.851c-8.951-17.03-13.326-36.449-12.651-56.156l.061-1.869c5.174.954 10.815 1.522 16.961 1.522 2.299 0 4.67-.079 7.109-.244V172a4 4 0 0 0 4 4v11.356c-4.407-2.666-8.209-6.391-11.038-11.007zM219.006 112H186a4 4 0 0 0-4 4v35.859l-8 5.333V96a4 4 0 0 0-8 0v7.724c-10.498.705-37.773.517-56.948-17.588A130.142 130.142 0 0 1 132.492 84h31.016c10.615 0 21.221 1.306 31.522 3.881.318.079.643.119.97.119h35.704c-.749 6.403-3.392 18.753-12.698 24zM242 96h-3.589a58.584 58.584 0 0 0 1.353-8h13.551c-1.651 4.656-6.1 8-11.315 8z" fill="#000000" data-original="#000000" class=""></path></g></svg>