<svg xmlns="http://www.w3.org/2000/svg" version="1.1" xmlns:xlink="http://www.w3.org/1999/xlink" xmlns:svgjs="http://svgjs.com/svgjs" width="512" height="512" x="0" y="0" viewBox="0 0 512 512" style="enable-background:new 0 0 512 512" xml:space="preserve" class=""><g><path d="M504.5 481.192h-26.481v-93.006h.064a7.5 7.5 0 0 0 7.5-7.5v-24.502a7.5 7.5 0 0 0-7.5-7.5h-2.835v-69.468c.001-.039.006-.077.006-.116s-.005-.077-.006-.116V255.77h3.746a7.5 7.5 0 0 0 7.5-7.5v-24.502a7.5 7.5 0 0 0-7.5-7.5H314.697c-4.143 0-7.5 3.358-7.5 7.5s3.357 7.5 7.5 7.5h156.797v9.502H42.327v-9.502h.217a7.49 7.49 0 0 0 1.745.212l240.408-.212c4.143 0 7.5-3.358 7.5-7.5s-3.357-7.5-7.5-7.5h-52.04l-34.475-92.957h7.9a7.5 7.5 0 0 0 7.5-7.5V91.31a7.5 7.5 0 0 0-7.5-7.5H169.57l-23.673-63.135a7.5 7.5 0 0 0-7.022-4.867H44.289a7.5 7.5 0 0 0-7.5 7.5V83.81h-2.872a7.5 7.5 0 0 0-7.5 7.5v24.502a7.5 7.5 0 0 0 7.5 7.5h2.872v92.957h-1.962a7.5 7.5 0 0 0-7.5 7.5v24.502a7.5 7.5 0 0 0 7.5 7.5h1.962v92.914h-2.872a7.5 7.5 0 0 0-7.5 7.5v24.502a7.5 7.5 0 0 0 7.5 7.5h2.872v93.006H7.5c-4.143 0-7.5 3.358-7.5 7.5s3.357 7.5 7.5 7.5h497a7.5 7.5 0 0 0 7.5-7.5 7.5 7.5 0 0 0-7.5-7.501zm-41.481 0H444.48v-43.656c0-9.963 8.105-18.068 18.068-18.068h.47v61.724zm-21.303-132.508v-44.017c0-9.962 8.105-18.067 18.068-18.067h.464v62.084zm-45.607 0h-36.136v-44.017c0-9.962 8.105-18.067 18.067-18.067 9.963 0 18.068 8.105 18.068 18.067v44.017zM378.041 271.6c-18.233 0-33.067 14.834-33.067 33.067v44.017h-23.267L287.3 255.909h172.949V271.6h-.464c-18.234 0-33.068 14.834-33.068 33.067v44.017h-15.606v-44.017c-.002-18.233-14.836-33.067-33.07-33.067zm-225.973-55.331h-36.135v-43.473c0-9.963 8.105-18.068 18.067-18.068s18.067 8.105 18.067 18.068v43.473zm46.515-107.957H41.417V98.81h157.166zM51.789 63.273h47.172c4.143 0 7.5-3.358 7.5-7.5s-3.357-7.5-7.5-7.5H51.789V30.808h81.89l19.873 53.002H51.789zm130.404 60.039c.017.05.029.101.047.151l34.419 92.806h-49.591v-43.473c0-18.234-14.834-33.068-33.067-33.068s-33.067 14.834-33.067 33.068v43.473H85.326v-43.473c0-18.234-14.834-33.068-33.067-33.068h-.47v-16.415h130.404zM51.789 154.727h.47c9.962 0 18.067 8.105 18.067 18.068v43.473H51.789zm219.46 101.043 34.458 92.914h-56.371v-43.606c0-18.234-14.834-33.068-33.067-33.068-18.234 0-33.068 14.834-33.068 33.068v43.606h-16.133v-43.606c0-18.234-14.834-33.068-33.067-33.068s-33.067 14.834-33.067 33.068v43.606H85.326v-43.606c0-18.234-14.834-33.068-33.067-33.068h-.47v-16.24zm-36.912 92.914h-36.136v-43.606c0-9.963 8.105-18.068 18.068-18.068 9.962 0 18.067 8.105 18.067 18.068v43.606zm-82.269 0h-36.135v-43.606c0-9.963 8.105-18.068 18.067-18.068s18.067 8.105 18.067 18.068v43.606zM51.789 287.01h.47c9.962 0 18.067 8.105 18.067 18.068v43.606H51.789zM90 388.186c4.143 0 7.5-3.358 7.5-7.5s-3.357-7.5-7.5-7.5H41.417v-9.502h429.166v9.502H120c-4.143 0-7.5 3.358-7.5 7.5s3.357 7.5 7.5 7.5h343.019v16.283h-.47c-18.234 0-33.068 14.834-33.068 33.068v43.656h-15.607v-43.656c0-18.234-14.834-33.068-33.067-33.068-18.234 0-33.068 14.834-33.068 33.068v43.656h-16.133v-43.656c0-18.234-14.834-33.068-33.067-33.068-18.234 0-33.068 14.834-33.068 33.068v43.656h-16.133v-43.656c0-18.234-14.834-33.068-33.067-33.068-18.234 0-33.068 14.834-33.068 33.068v43.656H167.07v-43.656c0-18.234-14.834-33.068-33.067-33.068s-33.067 14.834-33.067 33.068v43.656h-15.61v-43.656c0-18.234-14.834-33.068-33.067-33.068h-.47v-16.283zm308.874 93.006h-36.136v-43.656c0-9.963 8.105-18.068 18.068-18.068 9.962 0 18.067 8.105 18.067 18.068v43.656zm-82.269 0H280.47v-43.656c0-9.963 8.105-18.068 18.068-18.068 9.962 0 18.067 8.105 18.067 18.068zm-82.268 0h-36.136v-43.656c0-9.963 8.105-18.068 18.068-18.068 9.962 0 18.067 8.105 18.067 18.068v43.656zm-82.269 0h-36.135v-43.656c0-9.963 8.105-18.068 18.067-18.068s18.067 8.105 18.067 18.068v43.656zM51.789 419.469h.47c9.962 0 18.067 8.105 18.067 18.068v43.656H51.789z" fill="#000000" data-original="#000000" class=""></path></g></svg>