<svg xmlns="http://www.w3.org/2000/svg" version="1.1" xmlns:xlink="http://www.w3.org/1999/xlink" xmlns:svgjs="http://svgjs.com/svgjs" width="512" height="512" x="0" y="0" viewBox="0 0 60 60" style="enable-background:new 0 0 512 512" xml:space="preserve" class=""><g><g fill="#000" fill-rule="nonzero"><path d="M2 60h10a1.993 1.993 0 0 0 1.722-1h4.556c.354.617 1.01.998 1.722 1h10a2 2 0 0 0 2-2v-3a5.009 5.009 0 0 0-4-4.9V49h31a1 1 0 0 0 0-2h-.445L29.888.95A2.01 2.01 0 0 0 28.171 0c-.7-.003-1.35.357-1.719.951l-6.9 11.077C19.365 12.02 19.185 12 19 12h-6C5.824 12.008.008 17.824 0 25v9a2 2 0 0 0 2 2h5.356A8.983 8.983 0 0 0 4 43v7.1A5.009 5.009 0 0 0 0 55v3a2 2 0 0 0 2 2zm28-5v3H20v-3a3 3 0 0 1 3-3h4a3 3 0 0 1 3 3zM28.191 2.008 39.391 20H35a1 1 0 0 0 0 2h5.636l7.471 12H38a1 1 0 0 0 0 2h11.352L56.2 47H28v-4a8.983 8.983 0 0 0-3.356-7H30a2 2 0 0 0 2-2v-5h8a1 1 0 0 0 0-2h-8v-2a12.977 12.977 0 0 0-4.7-10H32a1 1 0 0 0 0-2h-8.008a12.926 12.926 0 0 0-2.25-.7zM17.117 39h-2.234l-.61-4.876A1 1 0 0 1 15.266 33h1.468a1 1 0 0 1 .993 1.124zM2 25c.007-6.072 4.928-10.993 11-11h6c6.072.007 10.993 4.928 11 11v9h-8.725A7.961 7.961 0 0 0 24 28v-1.126A4 4 0 0 0 23 19a1 1 0 0 0 0 2 2 2 0 1 1 0 4 1 1 0 0 0-1 1v2c0 1.93-.935 3.741-2.508 4.86A2.926 2.926 0 0 0 16.734 31h-1.468a2.926 2.926 0 0 0-2.758 1.86A5.963 5.963 0 0 1 10 28v-2a1 1 0 0 0-1-1 2 2 0 1 1 0-4 1 1 0 0 0 0-2 4 4 0 0 0-1 7.874V28c0 2.3.993 4.487 2.725 6H2zm10.5 11.026.4 3.222A2 2 0 0 0 14.883 41h2.234a2 2 0 0 0 1.983-1.752l.4-3.222A7 7 0 0 1 26 43v7h-3a5.006 5.006 0 0 0-5 5v2h-4v-2a5.006 5.006 0 0 0-5-5H6v-7a7 7 0 0 1 6.5-6.974zM2 55a3 3 0 0 1 3-3h4a3 3 0 0 1 3 3v3H2z" fill="#000000" data-original="#000000" class=""></path><path d="M19 47h-6a1 1 0 0 0 0 2h6a1 1 0 0 0 0-2zM10 45h12a1 1 0 0 0 0-2H10a1 1 0 0 0 0 2zM30 41a1 1 0 0 0 1 1h16a1 1 0 0 0 0-2H31a1 1 0 0 0-1 1z" fill="#000000" data-original="#000000" class=""></path></g></g></svg>