<svg xmlns="http://www.w3.org/2000/svg" version="1.1" xmlns:xlink="http://www.w3.org/1999/xlink" xmlns:svgjs="http://svgjs.com/svgjs" width="512" height="512" x="0" y="0" viewBox="0 0 480.004 480" style="enable-background:new 0 0 512 512" xml:space="preserve" class=""><g transform="matrix(1,0,0,1,0,65)"><path d="M170.234 96H152a8.007 8.007 0 0 0-7.59 5.473L130.234 144H120a8.007 8.007 0 0 0-7.59 5.473L98.234 192H88a8.007 8.007 0 0 0-7.59 5.473L66.234 240H56a8.007 8.007 0 0 0-7.59 5.473L34.234 288H24a8.007 8.007 0 0 0-7.59 5.473l-16 48A8 8 0 0 0 8 352h464a8 8 0 0 0 7.594-10.527l-16-48A8.008 8.008 0 0 0 456 288h-10.23l-14.176-42.527A8.008 8.008 0 0 0 424 240h-10.23l-14.176-42.527A8.008 8.008 0 0 0 392 192h-10.23l-14.176-42.527A8.008 8.008 0 0 0 360 144h-10.23l-14.176-42.527A8.008 8.008 0 0 0 328 96h-18.23L304 78.707V48c4.422 0 8-3.578 8-8V8c0-4.418-3.578-8-8-8H176a8 8 0 0 0-8 8v32c0 4.422 3.582 8 8 8v30.707zm-44.464 64h51.03l-8.527 32h-53.175zm162.64-77.469L292.906 96H264V72c0-4.418-3.578-8-8-8h-32a8 8 0 0 0-8 8v24h-28.902l4.496-13.469c.27-.816.41-1.672.406-2.531V48h96v32c0 .86.14 1.715.41 2.531zM280.258 136l2.137 8h-84.793l2.398-8.957V136zM256 112h17.86l2.132 8h-72l2.137-8zm-24-16V80h16v16zm-38.652 64h93.308l2.137 8h-97.59zm99.71 24 2.13 8H184.8l2.129-8zm6.399 24 2.129 8H178.402l2.13-8zm6.402 24 2.125 8h-136l2.13-8zm-146.656 56 2.125-8h157.328l2.13 8zm165.84 16 2.129 8H152.8l2.129-8zm-159.441-40 2.128-8h144.528l2.129 8zm-71.848-56H164l-8.527 32H83.098zm36.09 128H19.098l10.672-32h108.632zm-78.746-48 10.672-32h89.433l-8.527 32zm95.304 48 2.13-8h182.925l2.129 8zM440 304h10.234l10.672 32H350.145l-8.543-32zm-32-48h10.234l10.672 32h-91.558l-8.547-32zm-32-48h10.234l10.672 32h-72.36L316 208zm-32-48h10.234l10.672 32h-53.16l-8.543-32zm-21.766-48 10.672 32h-33.96l-8.544-32zM184 16h112v16H184zm5.602 96-8.528 32h-33.976l10.672-32zm0 0" fill="#000000" data-original="#000000" class=""></path></g></svg>