<svg xmlns="http://www.w3.org/2000/svg" version="1.1" xmlns:xlink="http://www.w3.org/1999/xlink" xmlns:svgjs="http://svgjs.com/svgjs" width="512" height="512" x="0" y="0" viewBox="0 0 480 480" style="enable-background:new 0 0 512 512" xml:space="preserve" class=""><g><path d="M429.121 217.852a7.874 7.874 0 0 0-3.2-1.598l-30.937-7.738L340 177.05a7.97 7.97 0 0 0-1.441-.649l-22.207-7.398-21.36-21.328-15.398-46.207a8.134 8.134 0 0 0-1.344-2.473l-32-40a8.011 8.011 0 0 0-6.168-3 8.194 8.194 0 0 0-6.227 2.879l-40 48c-.472.57-.867 1.2-1.167 1.871l-31.153 70.098-23 17.25-35.543-64a7.997 7.997 0 0 0-13.648-.555l-16.336 24.555-38.801 69.84-29.781 14.863a7.997 7.997 0 0 0-4.426 7.2v200a8 8 0 0 0 8 8h464a8 8 0 0 0 8-8v-184a7.995 7.995 0 0 0-2.879-6.145zM16 252.942l16-8v27.054h16v-37.93l24-43.199v41.13h16v-69.602l7.375-11.07 31.586 56.84-36.418 72.8-68.277 15.2a7.917 7.917 0 0 0-3.922 2.151L16 300.684zm96 187.054H16v-16h96zm-64-32v-16h96v16zm112-127.055 24 12v19.055h-16v-16h-16v16h-16v-19.055zm-16-9.89v-7.055h16a7.972 7.972 0 0 0-3.574.8zm176 8.945h-14.113l-30.313-15.2a7.972 7.972 0 0 0-3.574-.8h48zm8 16h16v16h-32v-16zm-32-3.055v19.055h-16v-16h-16v16h-16v-19.055l24-12zm-40-21.89-16 8v-23.055a8 8 0 0 0-8-8h-32a8 8 0 0 0-8 8v23.055l-16-8v-11.742l27.313-27.313h25.375L256 259.31zm-24 24.945v16h-32v-16zm-24-16v-16h16v16zm-16 48h8v16h-96v-16zm-16 32v16H80v-16zm56 56v24H128v-16h24a8 8 0 0 0 8-8v-24h24a8 8 0 0 0 8-8v-24h16a8 8 0 0 0 8-8v-24h112v16h-24a8 8 0 0 0-8 8v24h-24a8 8 0 0 0-8 8v24h-24a8 8 0 0 0-8 8zm232 24H248v-16h216zm0-32H280v-16h184zm0-32H312v-16h152zm0-32H344v-16h120zm-88-48v16h-16v-19.055l24-12 24 12v19.055h-16v-16zm88 16h-40v-16h40zm0-32h-46.113L400 271.051v-23.055h-16v16a7.972 7.972 0 0 0-3.574.8L368 271.052v-39.055h-16v47.055l-1.887.945H336v-24a8 8 0 0 0-8-8h-32v-32h-16v32h-12.688l-29.656-29.656a8.001 8.001 0 0 0-5.656-2.344h-32a8.001 8.001 0 0 0-5.656 2.344l-29.656 29.656H160v-16h-16v16h-8a8 8 0 0 0-8 8v23.055l-3.574 1.785a8.001 8.001 0 0 0-4.426 7.16v24H96a8 8 0 0 0-8 8v24H72a8 8 0 0 0-8 8v24H40a8 8 0 0 0-8 8v24H16V323.31l12-12 69.727-15.497a8.005 8.005 0 0 0 5.425-4.234l39.153-78.308 30.496-22.875a7.958 7.958 0 0 0 2.512-3.153L192 149.692v34.304h16v-69.105l31.871-38.246 24.992 31.199L280 153.3v46.695h16V171.31l10.344 10.343a8.117 8.117 0 0 0 3.129 1.938L328 189.766v26.23h16v-18.215l44 25.16c.633.36 1.316.63 2.023.797L416 230.242v17.754h16v-6.922l32 26.664zm0 0" fill="#000000" data-original="#000000" class=""></path><path d="M72 247.996h16v16H72zM320 95.996h30.207c-6.371 7.02-8 17.14-4.144 25.8a23.917 23.917 0 0 0 21.937 14.2h72c13.254 0 24-10.746 24-24s-10.746-24-24-24h-3.457a39.896 39.896 0 0 0-21.023-20.754C413.258 56.051 403.422 48 392 47.996h-3.457a39.821 39.821 0 0 0-36.805-24.004A39.818 39.818 0 0 0 315.25 48.47c-12.094 2.433-20.375 13.64-19.145 25.914 1.227 12.277 11.56 21.62 23.895 21.613zm103.121 2c.91 3.531 4.098 6 7.742 6H440a8 8 0 0 1 0 16h-72a8 8 0 0 1 0-16h1.137a7.995 7.995 0 0 0 7.742-6 23.85 23.85 0 0 1 46.242 0zM320 63.996h1.121a7.995 7.995 0 0 0 7.734-5.976C331.535 47.422 341.07 40 352 40s20.465 7.422 23.145 18.02a7.995 7.995 0 0 0 7.734 5.976H392a7.703 7.703 0 0 1 2.16.441 39.796 39.796 0 0 0-25.937 15.56H320a8 8 0 0 1 0-16zM80 79.996h72c11.695.008 21.691-8.418 23.668-19.941 1.977-11.528-4.64-22.801-15.668-26.692v-1.367A31.908 31.908 0 0 0 141.242 2.84a31.903 31.903 0 0 0-34.281 5.156H104c-15.016.016-28.008 10.457-31.258 25.121-11.285 3.574-18.281 14.848-16.469 26.551C58.082 71.368 68.16 80 80 79.996zm0-32a8 8 0 0 0 8-8c0-8.836 7.164-16 16-16h6.223a8 8 0 0 0 5.945-2.648A15.82 15.82 0 0 1 128 15.996c8.836 0 16 7.164 16 16v8c0 4.418 3.582 8 8 8a8 8 0 0 1 0 16H80a8 8 0 0 1 0-16zm0 0" fill="#000000" data-original="#000000" class=""></path></g></svg>