<svg xmlns="http://www.w3.org/2000/svg" version="1.1" xmlns:xlink="http://www.w3.org/1999/xlink" xmlns:svgjs="http://svgjs.com/svgjs" width="512" height="512" x="0" y="0" viewBox="0 0 512 512" style="enable-background:new 0 0 512 512" xml:space="preserve" class=""><g><path d="M256 454.058H7.5v-30h497v30H286M45 206.873v-63.1c0-8.284-6.716-15-15-15s-15 6.716-15 15v278.285m30 0V236.872m7.5-78.099h-45m45 30h-45m45 70h-45m45 80h-45m22.5-210v-15m466.999 169.069V143.773c0-8.284-6.716-15-15-15s-15 6.716-15 15v278.285m30 0V312.842m-37.5-154.069h45m-45 30h45m-45 70h45m-45 80h45m-22.5-210v-15M87.807 273.488h88m-89 148.57v-178.57m218.386 178.57v-60.246c0-29.984-18.5-46.364-49.193-58.324-30.693 11.96-49.193 28.34-49.193 58.324v60.246m-60 0v-25.501c0-9.143-5.641-14.137-15-17.784-9.359 3.647-15 8.641-15 17.784v25.501m30-73.285v-27.501c0-9.143-5.641-14.137-15-17.784-9.359 3.647-15 8.641-15 17.784v27.501h30zm277.386-75.285h-88m89 148.57v-178.57m-30 178.57v-25.501c0-9.143-5.641-14.137-15-17.784-9.359 3.647-15 8.641-15 17.784v25.501m30-73.285v-27.501c0-9.143-5.641-14.137-15-17.784-9.359 3.647-15 8.641-15 17.784v27.501h30zm-90 18.313v-93.599h-98.386v93.599m-30-153.598v208.57m157.386-178.57H177.807m157.386 75.285V213.488m0 208.57v-73.285m59.999-75.285v-60c0-16.569-7.388-29.876-30-40-10.764 4.819-18.078 10.36-22.788 16.631m-37.211 23.369h97.5m-293.386 0h165.886m60 0s7.586-10.203 7.586-32.949c0-37.985-33.446-67.787-86.78-94.403-53.333 26.616-86.78 56.418-86.78 94.403 0 22.745 7.587 32.949 7.587 32.949m31.001-97.352h96.385m-48.193-30V57.942M146.807 272.488v-29m218.385 0v29m0-99v-15m-195.597 31.63c-4.71-6.271-12.024-11.811-22.788-16.631-22.612 10.124-30 23.431-30 40v60m30-114.999v15m109.192 185.285v-15m0 78.285v-23" style="stroke-width:15;stroke-linecap:round;stroke-linejoin:round;stroke-miterlimit:10;" fill="none" stroke="#000000" stroke-width="15" stroke-linecap="round" stroke-linejoin="round" stroke-miterlimit="10" data-original="#000000" class=""></path></g></svg>